<svg width="20" height="24" viewBox="0 0 20 24" fill="none" xmlns="http://www.w3.org/2000/svg">
<path d="M5.08811 23.537C4.61569 23.222 4.19616 22.8342 3.84511 22.388C3.46277 21.9248 3.10784 21.4396 2.78211 20.935C2.01662 19.8158 1.41707 18.5918 1.00211 17.301C0.521022 15.9027 0.270093 14.4356 0.259109 12.957C0.225243 11.5299 0.570296 10.1193 1.25911 8.86898C1.75277 7.96821 2.47766 7.21535 3.35911 6.68798C4.21266 6.15853 5.1929 5.8684 6.19711 5.84798C6.57893 5.85271 6.95875 5.9041 7.32811 6.00098C7.61811 6.08098 7.96811 6.21098 8.39711 6.37098C8.94711 6.58098 9.24711 6.71098 9.34611 6.74098C9.60073 6.84415 9.87153 6.90169 10.1461 6.91098C10.3661 6.89756 10.5831 6.85381 10.7911 6.78098C10.9361 6.73098 11.2111 6.64098 11.6011 6.47098C11.9871 6.33098 12.2931 6.21098 12.5351 6.12098C12.8788 6.01172 13.2292 5.92487 13.5841 5.86098C13.9632 5.7999 14.3481 5.78313 14.7311 5.81098C15.3945 5.85552 16.0478 5.99702 16.6701 6.23098C17.6702 6.61685 18.5275 7.30072 19.1261 8.18998C18.868 8.35051 18.6253 8.53464 18.4011 8.73998C17.9143 9.17147 17.4994 9.67783 17.1721 10.24C16.7434 11.0099 16.5215 11.8778 16.5281 12.759C16.5209 13.7735 16.8131 14.7677 17.3681 15.617C17.7684 16.2284 18.2902 16.7509 18.9011 17.152C19.1618 17.3355 19.4439 17.4866 19.7411 17.602C19.6211 17.977 19.4891 18.342 19.3411 18.702C18.9971 19.5086 18.5789 20.2816 18.0921 21.011C17.6601 21.641 17.3201 22.111 17.0631 22.42C16.7255 22.8419 16.3284 23.2124 15.8841 23.52C15.4538 23.8048 14.9491 23.9564 14.4331 23.956C14.0842 23.97 13.7353 23.9271 13.4001 23.829C13.1101 23.734 12.8241 23.629 12.5441 23.506C12.2523 23.3719 11.9516 23.2583 11.6441 23.166C11.2645 23.0667 10.8735 23.0173 10.4811 23.019C10.0902 23.0186 9.70084 23.0673 9.32211 23.164C9.0132 23.252 8.71052 23.3606 8.41611 23.489C7.99611 23.664 7.72111 23.779 7.56111 23.829C7.23506 23.9242 6.89923 23.9819 6.56011 24.001C6.03216 23.9967 5.5166 23.8405 5.07511 23.551L5.08811 23.537ZM11.9381 5.08798C11.3335 5.41228 10.6511 5.56317 9.96611 5.52398C9.87775 4.83338 9.9708 4.13167 10.2361 3.48798C10.4665 2.8731 10.8052 2.30446 11.2361 1.80898C11.6932 1.28893 12.2458 0.861524 12.8641 0.549977C13.4472 0.233897 14.0914 0.0466789 14.7531 0.000976562C14.8312 0.700698 14.7456 1.409 14.5031 2.06998C14.2729 2.70923 13.9347 3.30421 13.5031 3.82898C13.064 4.35154 12.5235 4.77952 11.9141 5.08698L11.9381 5.08798Z" fill="#093D9F"/>
</svg>
