<svg width="23" height="24" viewBox="0 0 23 24" fill="none" xmlns="http://www.w3.org/2000/svg">
<path d="M0.721378 0C0.684207 0.0985641 0.663922 0.202691 0.661378 0.308V23.537C0.655793 23.623 0.669406 23.7091 0.70123 23.7892C0.733054 23.8693 0.782292 23.9413 0.845378 24L12.2604 11.907L0.721378 0ZM13.0304 12.708L15.9814 15.753L11.7684 18.153C11.7684 18.153 6.41338 21.2 3.46038 22.892L13.0304 12.708ZM13.8304 11.877L17.0014 15.169C17.5014 14.893 21.3724 12.677 21.9254 12.369C22.5094 12.031 22.4504 11.569 21.9544 11.323C21.4954 11.068 17.6204 8.848 17.0344 8.488L13.8344 11.88L13.8304 11.877ZM13.0304 11.077L16.0144 7.908L11.7534 5.477C11.7534 5.477 4.81038 1.5 2.50138 0.179L13.0314 11.079L13.0304 11.077Z" fill="#093D9F"/>
</svg>
