<svg width="20" height="20" viewBox="0 0 20 20" fill="none" xmlns="http://www.w3.org/2000/svg">
<path d="M18.3333 9.16658V16.6666H16.6666V14.1666H3.33329V16.6666H1.66663V3.33325H3.33329V11.6666H9.99996V5.83325H15C15.884 5.83325 16.7319 6.18444 17.357 6.80956C17.9821 7.43468 18.3333 8.28253 18.3333 9.16658ZM16.6666 11.6666V9.16658C16.6666 8.72456 16.491 8.30063 16.1785 7.98807C15.8659 7.67551 15.442 7.49992 15 7.49992H11.6666V11.6666H16.6666ZM6.66663 9.16658C6.83144 9.16658 6.99256 9.11771 7.1296 9.02614C7.26664 8.93458 7.37345 8.80443 7.43653 8.65215C7.4996 8.49988 7.5161 8.33233 7.48395 8.17068C7.45179 8.00903 7.37243 7.86054 7.25588 7.744C7.13934 7.62745 6.99085 7.54808 6.8292 7.51593C6.66755 7.48378 6.5 7.50028 6.34772 7.56335C6.19545 7.62642 6.0653 7.73323 5.97373 7.87028C5.88217 8.00732 5.83329 8.16843 5.83329 8.33325C5.83329 8.55427 5.92109 8.76623 6.07737 8.92251C6.23365 9.07879 6.44561 9.16658 6.66663 9.16658ZM6.66663 10.8333C6.17217 10.8333 5.68882 10.6866 5.2777 10.4119C4.86658 10.1372 4.54615 9.74678 4.35693 9.28996C4.16771 8.83314 4.1182 8.33048 4.21466 7.84553C4.31113 7.36057 4.54923 6.91512 4.89886 6.56548C5.24849 6.21585 5.69395 5.97775 6.1789 5.88129C6.66385 5.78483 7.16652 5.83433 7.62333 6.02355C8.08015 6.21277 8.4706 6.5332 8.7453 6.94433C9.02 7.35545 9.16663 7.8388 9.16663 8.33325C9.16663 8.99629 8.90323 9.63218 8.43439 10.101C7.96555 10.5699 7.32967 10.8333 6.66663 10.8333Z" fill="#093D9F"/>
</svg>
