<svg width="20" height="20" viewBox="0 0 20 20" fill="none" xmlns="http://www.w3.org/2000/svg">
<path d="M18.3333 9.90841V10.6501C18.3333 13.6167 17.5916 14.3501 14.6333 14.3501H5.36663C2.40829 14.3501 1.66663 13.6084 1.66663 10.6501V5.36675C1.66663 2.40841 2.40829 1.66675 5.36663 1.66675H6.66663" stroke="white" stroke-width="1.5" stroke-linecap="round" stroke-linejoin="round"/>
<path d="M10 14.3501V18.3334" stroke="white" stroke-width="1.5" stroke-linecap="round" stroke-linejoin="round"/>
<path d="M1.66663 10.8333H18.3333" stroke="white" stroke-width="1.5" stroke-linecap="round" stroke-linejoin="round"/>
<path d="M6.25 18.3333H13.75" stroke="white" stroke-width="1.5" stroke-linecap="round" stroke-linejoin="round"/>
<path d="M14.8833 7.80838H10.9166C9.76663 7.80838 9.3833 7.04172 9.3833 6.27505V3.34172C9.3833 2.42505 10.1333 1.67505 11.05 1.67505H14.8833C15.7333 1.67505 16.4166 2.35838 16.4166 3.20838V6.27505C16.4166 7.12505 15.7333 7.80838 14.8833 7.80838Z" stroke="white" stroke-width="1.5" stroke-linecap="round" stroke-linejoin="round"/>
<path d="M17.425 6.5999L16.4166 5.89157V3.59156L17.425 2.88323C17.925 2.54156 18.3333 2.7499 18.3333 3.35823V6.13323C18.3333 6.74157 17.925 6.9499 17.425 6.5999Z" stroke="white" stroke-width="1.5" stroke-linecap="round" stroke-linejoin="round"/>
</svg>
