<svg width="40" height="40" viewBox="0 0 40 40" fill="none" xmlns="http://www.w3.org/2000/svg">
<path d="M28.3334 19.7334H23.8667C22.6834 19.7334 21.8834 18.8334 21.8834 17.75V15.2666C21.8834 14.1833 22.6834 13.2833 23.8667 13.2833H26.35C27.4333 13.2833 28.3334 14.1833 28.3334 15.2666V19.7334Z" stroke="#093D9F" stroke-width="1.5" stroke-linecap="round" stroke-linejoin="round"/>
<path d="M28.3334 19.7333C28.3334 24.3833 27.4667 25.1667 24.85 26.7167" stroke="#093D9F" stroke-width="1.5" stroke-linecap="round" stroke-linejoin="round"/>
<path d="M18.1 19.7334H13.6333C12.45 19.7334 11.65 18.8334 11.65 17.75V15.2666C11.65 14.1833 12.45 13.2833 13.6333 13.2833H16.1167C17.2 13.2833 18.1 14.1833 18.1 15.2666V19.7334Z" stroke="#093D9F" stroke-width="1.5" stroke-linecap="round" stroke-linejoin="round"/>
<path d="M18.1 19.7333C18.1 24.3833 17.2334 25.1667 14.6167 26.7167" stroke="#093D9F" stroke-width="1.5" stroke-linecap="round" stroke-linejoin="round"/>
<path d="M20 36.6666C29.2047 36.6666 36.6666 29.2047 36.6666 20C36.6666 10.7952 29.2047 3.33331 20 3.33331C10.7952 3.33331 3.33331 10.7952 3.33331 20C3.33331 29.2047 10.7952 36.6666 20 36.6666Z" stroke="#093D9F" stroke-width="1.5" stroke-linecap="round" stroke-linejoin="round"/>
</svg>
