<svg width="20" height="20" viewBox="0 0 20 20" fill="none" xmlns="http://www.w3.org/2000/svg">
<path d="M19.1666 12.8084V14.6335C19.1666 16.6668 17.6833 18.5834 15.6666 19.1417C15.525 19.1751 15.375 19.1751 15.2416 19.1417C14.2583 18.8751 13.3916 18.2751 12.7833 17.5001C12.125 16.6834 11.7416 15.6751 11.7416 14.6335V12.8084C11.7416 12.4584 12 12.075 12.3166 11.9417L14.6333 10.9917C15.1583 10.7834 15.7416 10.7834 16.2666 10.9917L17.1 11.3334L18.5916 11.9417C18.9083 12.075 19.1666 12.4584 19.1666 12.8084Z" stroke="#6B7B99" stroke-width="1.5" stroke-linecap="round" stroke-linejoin="round"/>
<path d="M17.4584 9.17493L17.1 11.3332L16.2667 10.9915C15.7417 10.7832 15.1584 10.7832 14.6334 10.9915L12.3167 11.9415C12 12.0749 11.7417 12.4582 11.7417 12.8082V14.6333C11.7417 15.675 12.125 16.6833 12.7834 17.4999H5.15003C4.00836 17.4999 2.93337 16.5916 2.74171 15.4666L1.6917 9.17493C1.55836 8.39993 1.95002 7.35824 2.56669 6.86658L8.05003 2.48324C8.8917 1.80824 10.2584 1.80824 11.1 2.49158L16.5834 6.86658C17.1917 7.35824 17.5917 8.39993 17.4584 9.17493Z" stroke="#6B7B99" stroke-width="1.5" stroke-linecap="round" stroke-linejoin="round"/>
</svg>
